<svg xmlns="http://www.w3.org/2000/svg" viewBox="0 0 750 1000"><defs><style>.cls-1{fill:#7562f4;}.cls-2{fill:#fd4268;}</style></defs><g id="Layer_1" data-name="Layer 1"><path class="cls-1" d="M275.88,202.83a99.45,99.45,0,1,1,198.9,0V236.6h58.38V202.83c0-87-70.8-157.83-157.83-157.83S217.5,115.8,217.5,202.83V236.6h58.38Z"/><path class="cls-1" d="M533.86,296.35v81.39c46.42,2.5,83.48,40.68,83.89,87.41H672l-9.68-168.8Z"/><polygon class="cls-1" points="132.26 593.62 132.26 525.14 74.6 525.14 70.67 593.62 132.26 593.62"/><polygon class="cls-1" points="617.75 654.02 617.75 721.84 686.69 721.84 682.8 654.02 617.75 654.02"/><rect class="cls-1" x="405.02" y="296.35" width="68.85" height="81.26"/><rect class="cls-1" x="405.02" y="864.11" width="68.85" height="81.25"/><polygon class="cls-1" points="617.75 525.14 617.75 593.62 679.33 593.62 675.41 525.14 617.75 525.14"/><path class="cls-2" d="M556.91,743.48V501.59c0-33.1-27.08-60-60.36-60H253.45a60.26,60.26,0,0,0-60.35,60V743.48a60.25,60.25,0,0,0,60.35,60h243.1C529.83,803.51,556.91,776.59,556.91,743.48ZM496,708.9a34.13,34.13,0,0,1-34.17,34H288.21a34.13,34.13,0,0,1-34.16-34V536.18a34.13,34.13,0,0,1,34.16-34H461.79a34.13,34.13,0,0,1,34.17,34Z"/><path class="cls-1" d="M617.41,782.86c-3.52,43.73-39.48,78.72-83.55,81.12v81.39H699.51v-.12l-9.32-162.39Z"/><path class="cls-1" d="M132.26,465.15c.41-46.73,37.46-84.91,83.88-87.41V296.35H87.73L78,465.15Z"/><rect class="cls-1" x="276.14" y="864.11" width="68.88" height="81.25"/><rect class="cls-1" x="276.14" y="296.35" width="68.88" height="81.26"/><polygon class="cls-1" points="132.26 721.84 132.26 654.02 67.21 654.02 63.32 721.84 132.26 721.84"/><path class="cls-1" d="M132.48,782.86H59.82L50.49,945.37H216.14V864C171.62,862.09,135.55,826.91,132.48,782.86Z"/></g></svg>